<?xml version="1.0" encoding="UTF-8" standalone="no"?><!DOCTYPE svg PUBLIC "-//W3C//DTD SVG 1.1//EN" "http://www.w3.org/Graphics/SVG/1.1/DTD/svg11.dtd"><svg width="100%" height="100%" viewBox="0 0 20417 5000" version="1.1" xmlns="http://www.w3.org/2000/svg" xmlns:xlink="http://www.w3.org/1999/xlink" xml:space="preserve" xmlns:serif="http://www.serif.com/" style="fill-rule:evenodd;clip-rule:evenodd;stroke-linejoin:round;stroke-miterlimit:2;"><rect id="Signature" x="0" y="0" width="20416.7" height="5000" style="fill:none;"/><path d="M2995.78,2871.91c-22.934,10.354 -33.146,37.325 -22.821,60.27l92.721,206.088c10.341,22.983 37.37,33.221 60.341,22.85c22.934,-10.354 33.146,-37.325 22.825,-60.271l-92.721,-206.087c-10.341,-22.984 -37.37,-33.221 -60.345,-22.85m-327.646,22.85l-92.725,206.087c-10.325,22.946 -0.113,49.917 22.821,60.271c22.975,10.371 50.004,0.137 60.345,-22.85l92.725,-206.088c10.325,-22.945 0.113,-49.916 -22.82,-60.27c-22.975,-10.371 -50.005,-0.138 -60.346,22.85m872.725,-953.096c-265.034,-0 -480.196,208.15 -480.196,464.991c-0,256.838 215.162,464.996 480.196,464.996c265.033,0 479.716,-208.158 479.716,-464.996c0,-256.841 -214.683,-464.991 -479.716,-464.991m-1357.46,-0c-265.033,-0 -479.721,208.15 -479.721,464.991c0.009,256.838 214.692,464.996 479.721,464.996c265.034,0 480.192,-208.158 480.192,-464.996c-0,-256.841 -215.158,-464.991 -480.192,-464.991m692.504,-1329.44c398.405,14.746 875.663,179.346 1243.95,435.071c380.4,264.146 591.334,582.783 591.334,894.371c-0,457.441 -249.842,872.058 -691.555,1115.23c-17.137,9.437 -31.495,22.287 -46.55,34.2l46.55,224.179l-154.837,-77.896c-15.496,39.821 -26.125,81.746 -26.125,125.871l-0,1001.92c-0,25.325 -20.529,45.858 -45.858,45.858l-204.855,0c-25.62,0 -46.27,-20.992 -45.854,-46.612l6.304,-384.663c0.459,-28.175 -22.037,-51.375 -50.212,-51.783l-95.688,-1.379c-28.1,-0.405 -51.22,22.016 -51.679,50.116l-6.337,389.209c-0.409,25.033 -20.817,45.112 -45.854,45.112l-268.384,0c-25.216,0 -45.7,-20.358 -45.858,-45.575l-2.421,-387.542c-0.175,-28.012 -22.933,-50.633 -50.95,-50.633l-95.687,0c-28.263,0 -51.125,23.008 -50.95,51.271l2.412,386.333c0.158,25.438 -20.417,46.146 -45.858,46.146l-281.613,0c-25.025,0 -45.429,-20.062 -45.854,-45.079l-6.617,-389.046c-0.479,-27.987 -23.445,-50.35 -51.433,-50.083l-95.683,0.916c-28.288,0.275 -50.938,23.538 -50.454,51.821l6.566,384.829c0.438,25.63 -20.216,46.642 -45.85,46.642l-190.575,0c-25.325,0 -45.854,-20.533 -45.854,-45.858l0,-1001.92c0,-44.121 -10.629,-86.05 -26.129,-125.871l-154.833,77.896l47.016,-223.704c-15.196,-12.075 -29.679,-25.129 -47.016,-34.675c-420.117,-231.275 -638.363,-629.425 -638.363,-1115.23c0,-327.85 196.725,-657.575 545.742,-918.592c348.479,-260.612 801.975,-414.437 1215.92,-410.85m9.971,-349.575c-999.9,-12.15 -2121.2,733.804 -2121.2,1679.02c0,572.791 255,1110.92 819.317,1421.58l-0,1293.48c-0,57.371 46.508,103.875 103.875,103.875l531.637,0l0,0.95l131.567,-0.95l1071.53,0l113.038,1.896l-0,-1.896l548.733,0c57.371,0 103.875,-46.504 103.875,-103.875l-0,-1293.48c564.321,-310.654 872.525,-848.788 872.517,-1421.58c-0,-945.213 -1252.82,-1646.21 -2174.88,-1679.02" style="fill:#e23c30;fill-rule:nonzero;"/><path d="M6493.5,1320.95c655.35,56.1 650.25,-40.8 670.65,89.25c10.2,58.65 12.75,117.3 12.75,173.4c0,142.8 25.5,140.25 -265.2,140.25c-63.75,0 -76.5,-2.55 -140.25,-2.55c-137.7,0 -275.4,12.75 -413.1,22.95c-58.65,2.55 -66.3,10.2 -79.05,71.4c-10.196,58.65 -17.846,114.75 -17.846,173.4c0,73.95 5.096,81.6 45.896,81.6c0,0 43.354,-2.55 84.154,-2.55c224.396,0 446.246,15.3 668.096,15.3c102,0 91.8,0 91.8,326.4c0,344.25 -12.75,423.296 -12.75,726.746l0,79.054c0,94.346 28.05,81.6 -660.45,81.6c-726.75,0 -711.45,10.196 -719.1,-56.104c-10.2,-102 -15.3,-242.25 -15.3,-300.9c0,-43.346 15.3,-56.1 58.65,-66.3c142.8,-30.6 826.204,28.05 826.204,-48.45c0,-344.246 2.546,-334.046 -35.704,-334.046c0,0 -127.496,10.2 -318.75,10.2l-242.246,0c-127.504,0 -206.554,2.55 -206.554,2.55c-94.346,0 -96.9,-38.25 -96.9,-1053.15c0,-119.85 -43.35,-130.05 663.004,-130.05l101.996,0Z" style="fill:#e23c30;fill-rule:nonzero;"/><path d="M9729.43,1338.81c-0,1782.45 7.65,1721.25 7.65,1721.25c-0,214.196 5.104,224.396 -56.1,226.946c-249.9,7.65 -400.35,10.204 -415.65,10.204c-38.246,0 -38.246,-5.104 -43.35,-53.554c-22.95,-186.15 -0,-538.046 -0,-1471.35c-0,-25.5 -10.196,-35.7 -38.25,-35.7l-257.546,0c-107.1,0 -109.654,-5.1 -109.654,35.7c-0,12.75 12.754,933.3 12.754,940.95c-0,196.346 -7.654,196.346 -102.004,196.346c-448.8,-0 -425.85,22.95 -425.85,-119.846c-0,-1152.6 7.65,-1071 -30.596,-1071c-410.554,0 -364.65,5.1 -364.65,53.55c-10.2,288.15 -22.954,543.15 -22.954,831.3c-0,186.15 5.104,606.896 5.104,606.896c-0,89.25 25.5,73.95 -413.104,73.95c-84.146,-0 -61.196,-7.65 -61.196,-856.796c-0,-443.7 -7.65,-130.05 -7.65,-969c-0,-163.2 -10.2,-137.7 326.4,-137.7c305.996,0 247.35,10.2 673.196,10.2c624.754,0 441.15,5.1 772.654,5.1l550.796,2.55Z" style="fill:#e23c30;fill-rule:nonzero;"/><path d="M10333.5,2428.2c79.2,-1.8 156.6,-1.8 235.804,-1.8c21.596,0 27,-9 27,-27c-0,0 -1.8,-54 -1.8,-109.804c-0,-64.8 1.8,-113.4 1.8,-113.4c-0,-34.2 -21.6,-27 -77.404,-27l-187.204,0c-17.996,0 -26.996,5.4 -26.996,25.2l-0,171.004c-0,64.8 -5.4,82.8 28.8,82.8m241.204,-563.408c16.196,-0 21.6,-9 21.6,-25.2l-0,-189.004c-0,-19.8 -9,-25.2 -25.204,-25.2c-300.6,-0 -271.8,-5.4 -271.8,50.4c-0,34.2 16.2,95.4 -32.4,95.4c-315.009,-0 -304.204,5.4 -304.204,-43.2c-0,-21.6 5.4,-311.404 5.4,-316.804c-0,-12.6 -1.805,-54 -1.805,-55.8c0,-16.2 7.205,-25.2 25.205,-25.2l73.8,-0c885.612,-0 862.212,3.6 862.212,3.6l1.8,-0c37.8,-0 32.404,21.6 32.404,408.604l0,289.804l3.596,-0l0,615.612c0,55.8 -9,66.6 -64.8,66.6c0,0 -91.8,-1.8 -228.604,-1.8c-88.2,0 -176.404,1.8 -266.404,1.8c-120.6,0 -243.004,-1.8 -363.604,-5.4c-93.605,-3.6 -81.005,102.6 -81.005,-765.012c0,-99 -70.2,-79.2 613.813,-79.2" style="fill:#e23c30;fill-rule:nonzero;"/><path d="M11899.8,1320.95c655.35,56.1 650.25,-40.8 670.65,89.25c10.2,58.65 12.75,117.3 12.75,173.4c0,142.8 25.5,140.25 -265.2,140.25c-63.75,0 -76.5,-2.55 -140.25,-2.55c-137.7,0 -275.4,12.75 -413.1,22.95c-58.65,2.55 -66.3,10.2 -79.05,71.4c-10.195,58.65 -17.845,114.75 -17.845,173.4c-0,73.95 5.095,81.6 45.895,81.6c0,0 43.355,-2.55 84.155,-2.55c224.395,0 446.245,15.3 668.095,15.3c102,0 91.8,0 91.8,326.4c0,344.25 -12.75,423.296 -12.75,726.746l0,79.054c0,94.346 28.05,81.6 -660.45,81.6c-726.75,0 -1931.99,64.379 -1939.64,-1.921c-10.2,-101.995 -15.3,-242.245 -15.3,-300.9c-0,-43.345 15.3,-56.095 58.65,-66.3c142.8,-30.595 2046.75,-26.133 2046.75,-102.633c-0,-344.246 2.545,-334.046 -35.705,-334.046c0,0 -127.495,10.2 -318.75,10.2l-242.245,0c-127.505,0 -206.555,2.55 -206.555,2.55c-94.345,0 -96.9,-38.25 -96.9,-1053.15c0,-119.85 -43.35,-130.05 663.005,-130.05l101.995,0Z" style="fill:#e23c30;fill-rule:nonzero;"/><path d="M14248.3,2305.26l0,879.746c0,58.65 -7.65,94.354 -63.75,96.9c-33.15,2.55 -277.95,12.75 -351.9,12.75c-63.75,0 -76.5,-17.85 -79.05,-86.7c-12.75,-759.896 2.55,-701.246 -56.1,-701.246l-318.745,0c-48.455,0 -48.455,2.55 -48.455,51c-7.65,729.3 7.65,719.096 -66.295,724.196c-73.95,2.55 -288.155,12.75 -362.105,12.75c-84.15,0 -89.25,71.4 -89.25,-1303.05c0,-573.75 5.1,-581.4 5.1,-581.4l0,-2.55c0,-89.25 142.8,-86.7 392.7,-86.7c112.2,0 119.85,-73.95 119.85,734.4l0,5.1c0,17.85 10.2,25.5 28.05,25.5l349.35,0c22.95,0 30.6,-10.2 30.6,-30.6l0,-12.75c0,-721.65 -15.3,-683.4 68.85,-703.8c66.3,-15.3 130.05,-20.4 321.3,-20.4c119.85,0 122.4,-68.85 122.4,665.55l0,321.3l-2.55,0Z" style="fill:#e23c30;fill-rule:nonzero;"/><path d="M15854.8,3281.9c0,0 -38.25,-2.546 -76.495,-2.546c-81.6,0 -163.2,7.65 -244.8,7.65c-40.8,0 -68.855,-2.554 -173.405,-2.554c-219.295,0 -438.595,15.3 -657.895,15.3l-12.755,0c-40.8,0 -86.695,7.65 -124.945,7.65c-63.755,0 -84.15,-25.5 -84.15,-91.796l-0,-532.95c-0,-193.8 17.85,-211.65 73.95,-221.85c30.6,-7.65 555.9,-17.85 563.55,-17.85c40.8,0 68.845,-2.55 68.845,124.95c0,135.15 -17.845,150.45 -165.745,150.45c-30.605,0 -45.905,7.65 -45.905,40.8c0,142.8 0,147.896 43.355,147.896l313.65,-7.65c61.2,0 68.845,66.3 68.845,-622.196c0,-167.725 -5.3,-330.141 -7.075,-494.616c-0.358,-33.075 -337.05,-69.755 -337.05,-103.055c0,-379.95 -2.55,-346.8 112.2,-349.354c84.15,-2.546 1895.23,-12.391 1938.58,-12.391c49.304,-0 72.816,-38.688 83.529,343c2.933,104.55 -919.313,39.995 -1263.8,121.637c-0,0 -6.188,786.946 -6.188,1134.83c0,277.95 7.65,364.65 -66.3,364.65" style="fill:#e23c30;fill-rule:nonzero;"/><path d="M16517.5,3003.2c79.2,-1.8 156.6,-1.8 235.804,-1.8c21.596,0 26.996,-9 26.996,-27c0,0 -1.796,-54 -1.796,-109.804c0,-64.796 1.796,-113.4 1.796,-113.4c0,-34.196 -21.596,-26.996 -77.4,-26.996l-187.204,0c-17.996,0 -26.996,5.396 -26.996,25.196l0,171.004c0,64.8 -5.4,82.8 28.8,82.8m241.204,-563.408c16.196,-0 21.596,-8.996 21.596,-25.2l0,-189c0,-19.8 -8.996,-25.2 -25.2,-25.2c-300.6,-0 -271.8,-5.404 -271.8,50.396c0,34.204 16.2,95.404 -32.4,95.404c-315.008,-0 -304.208,5.4 -304.208,-43.2c-0,-21.6 5.404,-311.409 5.404,-316.804c-0,-12.6 -1.804,-54 -1.804,-55.805c-0,-16.2 7.204,-25.2 25.2,-25.2l73.804,0c885.612,0 862.212,3.6 862.212,3.6l1.8,0c37.8,0 32.405,21.6 32.405,408.609l-0,289.804l3.595,-0l0,615.608c0,55.8 -8.995,66.6 -64.8,66.6c0,0 -91.8,-1.8 -228.604,-1.8c-88.2,0 -176.4,1.8 -266.404,1.8c-120.6,0 -243.004,-1.8 -363.604,-5.396c-93.6,-3.604 -81.004,102.6 -81.004,-765.012c-0,-99.004 -70.196,-79.204 613.812,-79.204" style="fill:#e23c30;fill-rule:nonzero;"/><path d="M17377.4,1331.16c249.9,-10.2 397.8,-12.75 413.1,-12.75c38.246,0 40.8,7.65 45.896,53.55c20.404,186.15 -0,538.05 -0,1471.35c-0,25.5 10.2,35.7 38.254,35.7l257.546,0c107.1,0 109.654,5.1 109.654,-35.7c0,-12.75 -15.3,-933.296 -15.3,-940.946c0,-196.35 7.65,-196.35 104.55,-196.35c448.8,0 423.296,-22.95 423.296,122.4c-0,1150.05 -7.646,1071 33.154,1071c410.55,0 362.1,-7.65 364.646,-56.1c7.65,-288.146 20.404,-540.596 20.404,-831.296c0,-186.15 -5.104,-604.35 -5.104,-604.35c-0,-91.8 -22.95,-76.5 415.65,-76.5c84.15,0 61.2,10.2 61.2,856.8c-0,443.7 7.65,130.05 7.65,971.546c-0,160.65 7.65,137.704 -326.4,137.704c-306,0 -247.35,-12.754 -675.746,-12.754c-624.754,0 -438.604,-2.55 -772.654,-2.55l-550.796,-5.1c0,-1782.45 -7.65,-1721.25 -7.65,-1721.25c0,-214.2 -2.55,-224.4 58.65,-224.4Z" style="fill:#e23c30;fill-rule:nonzero;"/><g><path d="M5727.98,4136.43l0,-517.888l196.647,0c141.106,0 211.658,70.553 211.658,211.659l0,94.57c0,141.106 -70.552,211.659 -211.658,211.659l-196.647,-0Zm108.081,-97.573l94.571,-0c65.048,-0 97.573,-32.525 97.573,-97.573l-0,-127.596c-0,-65.048 -32.525,-97.573 -97.573,-97.573l-94.571,0l-0,322.742Z" style="fill:#f09c96;fill-rule:nonzero;"/><path d="M6236.86,4010.33l-0,-265.698c-0,-84.063 42.031,-126.095 126.094,-126.095l171.128,0c84.063,0 126.094,42.032 126.094,126.095l0,265.698c0,84.063 -42.031,126.095 -126.094,126.095l-171.128,-0c-84.063,-0 -126.094,-42.032 -126.094,-126.095Zm108.081,6.005c-0,15.011 7.505,22.517 22.516,22.517l162.122,-0c15.011,-0 22.516,-7.506 22.516,-22.517l0,-277.708c0,-15.011 -7.505,-22.517 -22.516,-22.517l-162.122,0c-15.011,0 -22.516,7.506 -22.516,22.517l-0,277.708Z" style="fill:#f09c96;fill-rule:nonzero;"/><rect x="6775.77" y="3618.54" width="108.081" height="517.887" style="fill:#f09c96;fill-rule:nonzero;"/><path d="M7006.94,4136.43l-0,-517.888l117.087,0l205.654,340.005l0,-340.005l108.081,0l-0,517.888l-117.088,-0l-205.654,-340.004l0,340.004l-108.08,-0Z" style="fill:#f09c96;fill-rule:nonzero;"/><path d="M7553.35,4010.33l0,-265.698c0,-84.063 42.032,-126.095 126.095,-126.095l216.912,0l50.287,39.03l0,58.543l-262.696,0c-15.011,0 -22.517,7.506 -22.517,22.517l0,277.708c0,15.011 7.506,22.517 22.517,22.517l169.627,-0l-0,-120.09l-99.074,0l-0,-97.573l207.155,0l-0,315.236l-282.211,-0c-84.063,-0 -126.095,-42.032 -126.095,-126.095Z" style="fill:#f09c96;fill-rule:nonzero;"/><path d="M8209.34,3638.81l15.011,-20.266l88.566,0l83.313,420.315l8.256,-0l89.317,-370.777l106.579,-0l89.317,370.777l8.256,-0l83.313,-420.315l88.566,0l15.011,20.266l-101.326,497.622l-171.878,-0l-64.548,-273.955l-64.549,273.955l-171.878,-0l-101.326,-497.622Z" style="fill:#f09c96;fill-rule:nonzero;"/><path d="M8967.41,4136.43l-0,-517.888l108.081,0l-0,202.652l192.143,0l0,-202.652l108.081,0l0,517.888l-108.081,-0l0,-217.663l-192.143,0l-0,217.663l-108.081,-0Z" style="fill:#f09c96;fill-rule:nonzero;"/><path d="M9450.77,4116.16l153.866,-497.623l165.123,0l153.865,497.623l-13.51,20.265l-90.067,-0l-31.524,-105.079l-202.652,0l-31.523,105.079l-90.067,-0l-13.511,-20.265Zm164.373,-182.387l144.108,0l-66.049,-217.663l-12.009,0l-66.05,217.663Z" style="fill:#f09c96;fill-rule:nonzero;"/><path d="M9917.62,3716.11l-0,-97.573l423.316,0l0,97.573l-157.618,0l0,420.315l-108.081,-0l0,-420.315l-157.617,0Z" style="fill:#f09c96;fill-rule:nonzero;"/><path d="M10420.5,4136.43l-0,-517.888l354.265,0l-0,97.573l-246.184,0l-0,105.079l223.667,0l-0,97.573l-223.667,0l-0,120.09l246.184,-0l-0,97.573l-354.265,-0Z" style="fill:#f09c96;fill-rule:nonzero;"/><path d="M10825.8,3638.81l13.51,-20.266l95.321,0l117.838,420.315l12.009,-0l118.589,-420.315l94.571,0l13.51,20.266l-147.11,497.622l-171.128,-0l-147.11,-497.622Z" style="fill:#f09c96;fill-rule:nonzero;"/><path d="M11366.2,4136.43l0,-517.888l354.265,0l0,97.573l-246.184,0l-0,105.079l223.667,0l0,97.573l-223.667,0l-0,120.09l246.184,-0l0,97.573l-354.265,-0Z" style="fill:#f09c96;fill-rule:nonzero;"/><path d="M11819.5,4136.43l0,-517.888l252.189,0c84.063,0 126.094,42.032 126.094,126.095l0,85.564c0,62.547 -23.267,101.576 -69.802,117.087l84.813,166.625l-12.759,22.517l-93.07,-0l-91.568,-180.135l-87.816,0l-0,180.135l-108.081,-0Zm108.081,-277.708l139.604,0c15.012,0 22.517,-7.506 22.517,-22.517l0,-97.573c0,-15.011 -7.505,-22.517 -22.517,-22.517l-139.604,0l-0,142.607Z" style="fill:#f09c96;fill-rule:nonzero;"/><path d="M12442.5,3716.11l0,-97.573l423.317,0l-0,97.573l-157.618,0l-0,420.315l-108.081,-0l-0,-420.315l-157.618,0Z" style="fill:#f09c96;fill-rule:nonzero;"/><path d="M12945.4,4136.43l0,-517.888l108.081,0l-0,202.652l192.144,0l-0,-202.652l108.081,0l-0,517.888l-108.081,-0l-0,-217.663l-192.144,0l-0,217.663l-108.081,-0Z" style="fill:#f09c96;fill-rule:nonzero;"/><path d="M13476.8,4136.43l-0,-517.888l354.265,0l-0,97.573l-246.185,0l0,105.079l223.668,0l-0,97.573l-223.668,0l0,120.09l246.185,-0l-0,97.573l-354.265,-0Z" style="fill:#f09c96;fill-rule:nonzero;"/><path d="M14110.3,4136.43l0,-517.888l108.081,0l0,202.652l192.144,0l-0,-202.652l108.081,0l-0,517.888l-108.081,-0l-0,-217.663l-192.144,0l0,217.663l-108.081,-0Z" style="fill:#f09c96;fill-rule:nonzero;"/><path d="M14641.6,4136.43l-0,-517.888l354.265,0l-0,97.573l-246.184,0l-0,105.079l223.667,0l-0,97.573l-223.667,0l-0,120.09l246.184,-0l-0,97.573l-354.265,-0Z" style="fill:#f09c96;fill-rule:nonzero;"/><path d="M15095,4136.43l-0,-517.888l108.081,0l-0,420.315l223.667,-0l0,97.573l-331.748,-0Z" style="fill:#f09c96;fill-rule:nonzero;"/><path d="M15506.3,4136.43l-0,-517.888l108.08,0l0,420.315l223.668,-0l-0,97.573l-331.748,-0Z" style="fill:#f09c96;fill-rule:nonzero;"/><path d="M16057.2,3638.81l15.011,-20.266l88.566,0l83.312,420.315l8.257,-0l89.316,-370.777l106.58,-0l89.317,370.777l8.256,-0l83.312,-420.315l88.567,0l15.011,20.266l-101.326,497.622l-171.879,-0l-64.548,-273.955l-64.548,273.955l-171.879,-0l-101.325,-497.622Z" style="fill:#f09c96;fill-rule:nonzero;"/><path d="M16815.3,4136.43l-0,-517.888l354.264,0l0,97.573l-246.184,0l0,105.079l223.668,0l-0,97.573l-223.668,0l0,120.09l246.184,-0l0,97.573l-354.264,-0Z" style="fill:#f09c96;fill-rule:nonzero;"/><path d="M17408.2,3638.81l15.011,-20.266l88.566,0l83.313,420.315l8.256,-0l89.317,-370.777l106.579,-0l89.317,370.777l8.256,-0l83.313,-420.315l88.566,0l15.011,20.266l-101.326,497.622l-171.878,-0l-64.548,-273.955l-64.549,273.955l-171.878,-0l-101.326,-497.622Z" style="fill:#f09c96;fill-rule:nonzero;"/><path d="M18095.7,4116.16l153.865,-497.623l165.124,0l153.865,497.623l-13.51,20.265l-90.068,-0l-31.523,-105.079l-202.652,0l-31.523,105.079l-90.068,-0l-13.51,-20.265Zm164.373,-182.387l144.108,0l-66.049,-217.663l-12.009,0l-66.05,217.663Z" style="fill:#f09c96;fill-rule:nonzero;"/><path d="M18643.6,4136.43l-0,-517.888l117.088,0l205.653,340.005l0,-340.005l108.081,0l0,517.888l-117.087,-0l-205.654,-340.004l-0,340.004l-108.081,-0Z" style="fill:#f09c96;fill-rule:nonzero;"/><path d="M19154,3716.11l-0,-97.573l423.316,0l0,97.573l-157.618,0l0,420.315l-108.08,-0l-0,-420.315l-157.618,0Z" style="fill:#f09c96;fill-rule:nonzero;"/></g></svg>